<?xml version="1.0" encoding="utf-8"?>
<svg version="1.1" id="Layer_1" xmlns="http://www.w3.org/2000/svg" xmlns:xlink="http://www.w3.org/1999/xlink" x="0px" y="0px"
	 viewBox="0 0 612 140.3" style="enable-background:new 0 0 612 140.3;" xml:space="preserve" width="264">
<title>Emergent Software Logo</title>
<style type="text/css">
	.Arched_x0020_Green{fill:url(#SVGID_1_);stroke:#FFFFFF;stroke-width:0.25;stroke-miterlimit:1;}
	.st0{fill:#EE3442;}
	.st1{fill:#FFFFFF;}
	.st2{fill:#717073;}
</style>
<linearGradient id="SVGID_1_" gradientUnits="userSpaceOnUse" x1="-102.8794" y1="413.042" x2="-102.1723" y2="412.3349">
	<stop  offset="0" style="stop-color:#2DAE4A"/>
	<stop  offset="0.9831" style="stop-color:#1A371A"/>
</linearGradient>
<g>
	<path class="st0" d="M129.5,20.7c-3.3-7.1-10.5-10.5-10.6-10.5C104.4,3.5,87.9,0,71.2,0C53.6,0,36.3,3.9,21,11.2
		C14,14.6,10.6,21.7,10.5,21.8c-14,29.8-14,66.9,0,96.7c3.3,7.1,10.4,10.6,10.5,10.6c15.2,7.3,32.6,11.2,50.2,11.2
		c16.7,0,33.2-3.5,47.7-10.2c7.1-3.3,10.5-10.4,10.6-10.5C143.8,89.1,143.8,51.2,129.5,20.7z"/>
	<path class="st1" d="M115,67.3H58.5v-5.3c0-5.9,5.2-6.3,6.3-6.3h19.7c1.5,0,2.8-1.3,2.8-2.8s-1.3-2.8-2.8-2.8H64.8
		c-4.8,0-11.9,3.2-11.9,11.9v5.3H28.1C29.6,45,48.2,27.3,70.9,27.3c14.4,0,27.7,7.2,35.7,19.1c0.9,1.3,2.6,1.6,3.9,0.8
		c1.3-0.9,1.6-2.6,0.8-3.9c-9-13.6-24.1-21.6-40.4-21.6c-26.7,0-48.5,21.7-48.5,48.5c0,1.5,1.3,2.8,2.8,2.8h27.7v5.3
		c0,4.8,3.2,11.9,11.9,11.9h19.7c1.5,0,2.8-1.3,2.8-2.8s-1.3-2.8-2.8-2.8H64.8c-5.9,0-6.3-5.2-6.3-6.3v-5.3h53.6
		C110.7,95.3,92,113,69.4,113c-14.1,0-27.3-6.9-35.3-18.5c-0.9-1.3-2.6-1.6-3.9-0.7c-1.3,0.9-1.6,2.6-0.7,3.9
		c9.1,13.1,24,20.9,39.9,20.9c26.7,0,48.5-21.7,48.5-48.5C117.8,68.6,116.6,67.3,115,67.3z"/>
</g>
<g>
	<path class="st2" d="M181.9,48.5v34.4H202v-4.4c0,0-14.5,0-15.6,0c0-1,0-10.9,0-11.9c1.1,0,15.6,0,15.6,0v-4.4c0,0-14.5,0-15.6,0
		c0-1,0-8.2,0-9.2c1.1,0,15.8,0,15.8,0v-4.4h-0.6H181.9z"/>
	<path class="st2" d="M239.9,58c-1.4-0.9-3-1.4-4.8-1.4c-1.9,0-3.7,0.5-5.4,1.6c-1.4,0.9-2.5,2.2-3.5,3.7c-0.4-1-0.9-1.9-1.5-2.5
		c-0.7-0.8-1.7-1.5-2.8-2c-1.1-0.5-2.4-0.7-3.6-0.7c-1.9,0-3.7,0.5-5.3,1.5c-0.9,0.5-1.7,1.4-2.5,2.3c0-1.2,0-3.2,0-3.2h-4.4v25.7
		h4.4v-11c0-3,0.3-5.2,0.9-6.6c0.6-1.4,1.4-2.5,2.6-3.3c1.2-0.8,2.4-1.2,3.8-1.2c1.1,0,2.1,0.3,2.9,0.9c0.8,0.6,1.4,1.3,1.7,2.3
		c0.3,1,0.5,3,0.5,5.8v13.1h4.4V72.7c0-3.4,0.3-5.9,0.8-7.3c0.5-1.4,1.4-2.5,2.6-3.3c1.2-0.8,2.4-1.2,3.9-1.2c1.1,0,2.1,0.3,2.9,0.8
		c0.8,0.5,1.4,1.2,1.7,2.1c0.3,0.9,0.5,2.7,0.5,5.2v14h4.4V69c0-3.2-0.3-5.5-1-7.1C242.4,60.2,241.3,58.9,239.9,58z"/>
	<path class="st2" d="M275,70.3c0-3.5-1-6.4-2.8-8.7c-2.6-3.3-6.1-5-10.5-5c-4.2,0-7.7,1.6-10.2,4.8c-2,2.5-3,5.4-3,8.6
		c0,3.4,1.2,6.5,3.5,9.2c2.4,2.7,5.7,4.1,9.9,4.1c1.9,0,3.6-0.3,5.1-0.8c1.5-0.6,2.9-1.4,4.1-2.5c1.2-1.1,2.3-2.5,3.2-4.2l0.3-0.5
		l-3.7-1.9l-0.3,0.5c-0.9,1.5-1.8,2.6-2.6,3.3c-0.8,0.7-1.7,1.2-2.8,1.6c-1.1,0.4-2.3,0.6-3.5,0.6c-2.5,0-4.5-0.8-6.1-2.5
		c-1.5-1.6-2.3-3.6-2.5-6c1.2,0,22.1,0,22.1,0L275,70.3z M253.4,67c0.6-1.7,1.4-3.1,2.4-4c1.6-1.4,3.6-2.2,5.8-2.2
		c1.4,0,2.7,0.3,3.9,0.9c1.2,0.6,2.2,1.3,3,2.3c0.6,0.8,1.1,1.8,1.5,3.1C268.7,67,254.9,67,253.4,67z"/>
	<path class="st2" d="M291.8,57.5c-1.1-0.6-2.1-0.9-3.1-0.9c-1.3,0-2.5,0.4-3.7,1.1c-0.8,0.5-1.5,1.2-2.2,2c0-1,0-2.5,0-2.5h-4.4
		v25.7h4.4V74c0-4.2,0.2-7,0.6-8.3c0.5-1.7,1.2-3,2.1-3.7c0.9-0.8,1.8-1.2,2.7-1.2c0.4,0,0.9,0.1,1.5,0.4l0.5,0.2l2.2-3.6
		L291.8,57.5z"/>
	<path class="st2" d="M314.7,60.7c-1.2-1.2-2.5-2.3-3.8-2.9c-1.7-0.8-3.5-1.2-5.4-1.2c-2.3,0-4.5,0.6-6.6,1.8
		c-2.1,1.2-3.7,2.8-4.9,4.9c-1.2,2-1.8,4.3-1.8,6.6c0,2.4,0.6,4.6,1.7,6.5c1.1,2,2.7,3.6,4.8,4.7c2.1,1.2,4.3,1.8,6.6,1.8
		c2,0,3.9-0.4,5.7-1.3c1.3-0.6,2.5-1.5,3.5-2.6c0,2.5-0.3,4.4-0.9,5.5c-0.6,1.1-1.6,2-2.9,2.8c-1.4,0.8-3.1,1.1-5.2,1.1
		c-2.1,0-3.8-0.4-5.2-1.1c-1.4-0.7-2.5-1.9-3.4-3.4l-0.2-0.3h-4.7l0.4,0.8c0.9,2,1.9,3.5,3,4.6c1.1,1.1,2.6,1.9,4.3,2.5
		c1.7,0.6,3.7,0.9,5.9,0.9c3,0,5.6-0.6,7.7-1.9c2.2-1.3,3.7-3.1,4.6-5.5c0.6-1.7,0.9-4.2,0.9-7.8V57.2h-4.4
		C314.7,57.2,314.7,59.4,314.7,60.7z M312.4,76.4c-1.6,1.6-3.8,2.4-6.5,2.4c-2.7,0-4.9-0.8-6.6-2.5c-1.7-1.7-2.5-3.7-2.5-6.3
		c0-1.7,0.4-3.2,1.2-4.7c0.8-1.4,1.9-2.6,3.4-3.4c1.4-0.8,3-1.2,4.7-1.2c1.6,0,3.1,0.4,4.5,1.2c1.4,0.8,2.5,1.9,3.2,3.2
		c0.8,1.4,1.1,2.9,1.1,4.7C314.8,72.6,314,74.8,312.4,76.4z"/>
	<path class="st2" d="M350,70.3c0-3.5-1-6.4-2.8-8.7c-2.6-3.3-6.1-5-10.5-5c-4.2,0-7.7,1.6-10.2,4.8c-2,2.5-3,5.4-3,8.6
		c0,3.4,1.2,6.5,3.5,9.2c2.4,2.7,5.7,4.1,9.9,4.1c1.9,0,3.6-0.3,5.1-0.8c1.5-0.6,2.9-1.4,4.1-2.5c1.2-1.1,2.3-2.5,3.2-4.2l0.3-0.5
		l-3.7-1.9l-0.3,0.5c-0.9,1.5-1.8,2.6-2.6,3.3c-0.8,0.7-1.7,1.2-2.8,1.6c-1.1,0.4-2.3,0.6-3.5,0.6c-2.5,0-4.5-0.8-6.1-2.5
		c-1.5-1.6-2.3-3.6-2.5-6c1.2,0,22.1,0,22.1,0L350,70.3z M328.4,67c0.6-1.7,1.4-3.1,2.4-4c1.6-1.4,3.6-2.2,5.8-2.2
		c1.4,0,2.7,0.3,3.9,0.9c1.2,0.6,2.2,1.3,3,2.3c0.6,0.8,1.1,1.8,1.5,3.1C343.7,67,329.9,67,328.4,67z"/>
	<path class="st2" d="M372.8,58.1c-1.5-1-3.2-1.5-5.2-1.5c-1.9,0-3.7,0.4-5.3,1.3c-1.2,0.6-2.3,1.6-3.3,2.8c0-1.3,0-3.5,0-3.5h-4.4
		v25.7h4.4v-9.6c0-3.2,0.1-5.4,0.4-6.5c0.4-1.7,1.4-3.2,2.8-4.4c1.4-1.2,3-1.8,4.7-1.8c1.5,0,2.8,0.4,3.7,1.1
		c0.9,0.7,1.5,1.8,1.8,3.3c0.2,0.9,0.3,2.8,0.3,5.5v12.3h4.4V69.7c0-3.4-0.3-5.9-1.1-7.6C375.4,60.5,374.3,59.1,372.8,58.1z"/>
	<path class="st2" d="M390,48.1h-0.6h-3.8c0,0,0,8.1,0,9.1c-0.9,0-4.3,0-4.3,0v3.9c0,0,3.4,0,4.3,0c0,1.1,0,21.8,0,21.8h4.4
		c0,0,0-20.7,0-21.8c0.9,0,5,0,5,0v-3.9c0,0-4.1,0-5,0C390,56.2,390,48.1,390,48.1z"/>
	<path class="st2" d="M450.7,56.6c-3.9,0-7.2,1.4-9.8,4.3c-2.3,2.6-3.5,5.7-3.5,9.2c0,3.5,1.3,6.7,3.7,9.3c2.5,2.7,5.7,4,9.6,4
		c3.9,0,7.1-1.3,9.6-4c2.5-2.7,3.7-5.8,3.7-9.3c0-3.5-1.2-6.6-3.5-9.2C458,58,454.7,56.6,450.7,56.6z M458.5,74.8
		c-0.8,1.4-1.9,2.5-3.2,3.3c-2.7,1.5-6.3,1.5-9,0c-1.4-0.8-2.4-1.9-3.2-3.3c-0.8-1.4-1.2-3-1.2-4.6c0-2.6,0.9-4.8,2.6-6.6
		c1.8-1.8,3.9-2.7,6.3-2.7c2.4,0,4.5,0.9,6.3,2.7c1.8,1.8,2.7,4,2.7,6.6C459.7,71.8,459.3,73.4,458.5,74.8z"/>
	<path class="st2" d="M473.5,47.9c-0.9,0.5-1.5,1.2-1.9,2.1c-0.4,0.8-0.5,2.1-0.5,4v3.2h-3.2v3.9h3.2v21.7h4.3l0-21.7h5.1v-3.9h-5.1
		l0-2.7c0-1.8,0.1-2.3,0.1-2.4c0.1-0.2,0.2-0.4,0.5-0.5c0.8-0.5,2.1-0.4,3.9,0.4l0.8,0.4V48l-0.4-0.1
		C477.3,46.9,475.1,47,473.5,47.9z"/>
	<path class="st2" d="M424.7,63.1c-3-2.2-3.9-3-4.2-3.2c-0.7-0.7-1.2-1.4-1.5-2c-0.3-0.6-0.4-1.2-0.4-1.8c0-1,0.4-1.9,1.1-2.5
		c0.7-0.7,1.7-1,2.8-1c0.9,0,1.8,0.2,2.6,0.7c0.8,0.5,1.8,1.5,3,3.1l0.4,0.5l3.6-2.8l-0.4-0.5c-1.6-2.1-3.1-3.6-4.5-4.4
		c-2.8-1.6-6.3-1.6-9-0.1c-1.3,0.7-2.4,1.7-3.1,3c-0.7,1.3-1.1,2.7-1.1,4.2c0,1.9,0.6,3.7,1.9,5.4c0.7,1,2.4,2.5,5.3,4.6
		c2.7,2,4.5,3.7,5.5,5.2c0.7,1,1,1.9,1,2.9c0,0.9-0.2,1.7-0.7,2.5c-0.5,0.8-1.1,1.4-2,1.8c-0.9,0.5-1.8,0.7-2.8,0.7
		c-2.3,0-4.5-1.7-6.3-5.1l-0.3-0.6l-3.8,2.3l0.3,0.5c1.4,2.6,3,4.5,4.7,5.6c1.7,1.1,3.7,1.7,5.8,1.7c2.8,0,5.1-0.9,7-2.8
		c1.9-1.9,2.9-4.1,2.9-6.7c0-1.8-0.6-3.5-1.7-5.3C429.6,67.2,427.6,65.2,424.7,63.1z"/>
	<path class="st2" d="M561.8,60.6c-1-1.1-2.2-2-3.4-2.7c-1.7-0.9-3.6-1.3-5.7-1.3c-3.6,0-6.8,1.3-9.3,3.9c-2.6,2.6-3.9,5.8-3.9,9.4
		c0,3.7,1.3,6.9,3.8,9.6c2.5,2.6,5.7,3.9,9.3,3.9c2,0,3.9-0.4,5.6-1.3c1.3-0.6,2.5-1.5,3.6-2.6v3.2h4.3V57.2h-4.3V60.6z M560.8,74.8
		c-0.8,1.4-1.9,2.5-3.3,3.3c-2.9,1.6-6.3,1.6-9.1,0c-1.4-0.8-2.5-2-3.3-3.4c-0.8-1.5-1.2-3-1.2-4.6c0-1.6,0.4-3.2,1.2-4.6
		c0.8-1.4,1.9-2.6,3.3-3.4c1.4-0.8,2.9-1.2,4.5-1.2c2.6,0,4.7,0.9,6.4,2.7c1.7,1.8,2.6,4,2.6,6.6C562,71.9,561.6,73.4,560.8,74.8z"
		/>
	<polygon class="st2" points="492,48.2 487.7,48.2 487.7,57.2 483.4,57.2 483.4,61.1 487.7,61.1 487.7,82.8 492,82.8 492,61.1 
		497,61.1 497,57.2 492,57.2 	"/>
	<path class="st2" d="M578.2,57.7c-0.7,0.5-1.4,1.1-2.1,1.9v-2.4h-4.4v25.6h4.4V74c0-4.2,0.2-6.9,0.6-8.3c0.5-1.7,1.2-2.9,2-3.7
		c0.9-0.8,1.7-1.1,2.6-1.1c0.4,0,0.8,0.1,1.4,0.4l0.5,0.2l2.2-3.6l-0.5-0.3C582.4,56.1,580.2,56.4,578.2,57.7z"/>
	<path class="st2" d="M608,73.8c-0.9,1.5-1.8,2.6-2.6,3.3c-0.8,0.7-1.7,1.2-2.8,1.6c-1.1,0.4-2.3,0.6-3.4,0.6
		c-2.4,0-4.4-0.8-6.1-2.5c-1.5-1.6-2.4-3.6-2.5-5.9h21.9l0-0.6c0-3.5-1-6.4-2.8-8.7c-2.6-3.3-6.1-5-10.4-5c-4.2,0-7.6,1.6-10.2,4.8
		c-2,2.5-3,5.4-3,8.6c0,3.4,1.2,6.5,3.5,9.2c2.4,2.7,5.7,4.1,9.8,4.1c1.9,0,3.6-0.3,5-0.9c1.5-0.6,2.8-1.4,4-2.5
		c1.2-1.1,2.2-2.5,3.1-4.3l0.3-0.5l-3.7-1.9L608,73.8z M593.6,63c1.6-1.4,3.5-2.2,5.8-2.2c1.4,0,2.7,0.3,3.9,0.9
		c1.2,0.6,2.2,1.3,3,2.2c0.6,0.8,1.1,1.8,1.5,3h-16.6C591.8,65.2,592.6,63.9,593.6,63z"/>
	<polygon class="st2" points="525.6,74 518.2,57.2 516.8,57.2 509.4,74 502.4,57.2 497.8,57.2 508.8,82.8 510.1,82.8 517.5,66.2 
		525,82.8 526.3,82.8 537.4,57.2 532.9,57.2 	"/>
</g>
</svg>